# xmcd
#
# Track frame offsets:
# 150
# 16693
# 27309
# 41666
# 61039
# 82348
# 97121
# 107754
# 128816
# 149066
#
# Disc length: 2188 seconds
#
#
# Revision: 0
# Processed by: cddbd v1.5.1PL0 Copyright (c) Steve Scherf et al.
# Submitted via: FreeRIP 2.80 
#
DISCID=88088a0a
DTITLE=Allan Hall - House of a Thousand Dreams
DYEAR=2004
DGENRE=Contemporary Christian
TTITLE0=Gulf Coast Highway
TTITLE1=Down In The River To Pray
TTITLE2=Scorns Of Time
TTITLE3=Prayer In Open D
TTITLE4=Nearer My God To Thee/Peace Be Still
TTITLE5=Between The Two Of Them
TTITLE6=Paul And Peter Walked
TTITLE7=House Of A Thousand Dreams
TTITLE8=Summer Of My Dreams
TTITLE9=Bluebird, Fly
EXTD=
EXTT0=
EXTT1=
EXTT2=
EXTT3=
EXTT4=
EXTT5=
EXTT6=
EXTT7=
EXTT8=
EXTT9=
PLAYORDER=
